<?xml version="1.0" encoding="utf-8"?>
<!-- Svg Vector Icons : http://www.onlinewebfonts.com/icon -->
<!DOCTYPE svg PUBLIC "-//W3C//DTD SVG 1.1//EN" "http://www.w3.org/Graphics/SVG/1.1/DTD/svg11.dtd">
<svg fill="#4b587c" version="1.1" xmlns="http://www.w3.org/2000/svg" xmlns:xlink="http://www.w3.org/1999/xlink" x="0px" y="0px" viewBox="0 0 1000 1000" enable-background="new 0 0 1000 1000" xml:space="preserve">
<metadata> Svg Vector Icons : http://www.onlinewebfonts.com/icon </metadata>
<g><g transform="translate(0.000000,511.000000) scale(0.100000,-0.100000)"><path d="M8233.9,3711.2C7223.7,2701,6935.1,2425.5,6882.6,2425.5c-81.3,0-220.4-84-270.3-162.7c-105-162.7-73.5-359.5,76.1-493.3c170.6-149.6,474.9-89.2,572,115.4c23.6,49.8,42,105,42,125.9c0,18.4,585.1,619.2,1298.8,1332.9L9900,4642.7l-175.8,175.8c-97.1,99.7-183.7,178.4-191.5,178.4C9524.8,4996.9,8939.7,4419.6,8233.9,3711.2z"/><path d="M6554.6,4183.5c-1359.1-13.1-1558.6-18.4-1639.9-57.7c-55.1-23.6-1044.3-994.4-2453.3-2406L100-644.3l2067.6-2065l2065-2067.6l2350.9,2348.3C7963.6-1048.4,8955.4-38.3,8984.3,19.5c52.5,97.1,55.1,167.9,68.2,1797.3l13.1,1697.6l-632.4-629.7L7800.9,2255l15.7-120.7c18.4-146.9-42-401.4-128.6-540.5c-86.6-136.4-262.4-291.2-409.3-359.5c-94.5-42-170.5-55.1-356.8-55.1c-204.6,0-254.5,10.5-385.7,73.5c-530,259.8-663.8,978.7-262.4,1406.4c73.5,78.7,186.3,160.1,280.8,204.7c136.4,63,188.9,73.5,391,73.5h233.5l598.2,614c330.6,338.5,600.9,624.5,600.9,637.6c0,10.5-63,18.4-136.4,15.7C8165.7,4201.9,7407.4,4191.4,6554.6,4183.5z M5549.7,780.4l624.5-624.5l191.5,191.5l191.5,188.9l102.3-105l102.3-105l-307-309.6l-307-307l-721.6,721.5c-396.2,396.2-721.5,732.1-721.5,747.8c0,26.2,183.7,223,207.3,223C4920,1402.2,5208.6,1121.5,5549.7,780.4z M5219.1,211l829.1-600.9l-118.1-118.1L5809.4-626l-149.5,112.8l-147,110.2L5371.3-542l-139.1-141.7l102.3-136.4c57.7-73.5,105-146.9,105-157.4c0-13.1-44.6-68.2-99.7-120.7l-99.7-97.1l-603.5,829.1C4306,90.3,4030.5,476,4025.2,489.2c-13.1,36.7,291.3,338.5,330.6,330.6C4374.2,814.5,4762.5,541.6,5219.1,211z M3818,72l99.7-97.1l-196.8-199.4l-196.8-196.8l196.8-196.8l196.8-194.2l157.4,154.8l157.4,154.8l105-102.3l105-102.3l-144.3-146.9c-78.7-81.3-144.3-157.4-144.3-170.5c0-13.1,91.8-118.1,202-228.3l204.7-204.7l196.8,196.8l199.4,196.8l102.3-105l102.3-105l-312.2-314.9l-314.9-314.9l-734.7,734.7l-734.7,734.7l301.7,301.7C3532,32.6,3678.9,169,3692,169C3707.8,169,3762.9,124.4,3818,72z M3091.2-799.2c125.9-60.3,1046.9-978.7,1086.3-1086.2c81.3-212.5,5.3-377.8-309.6-687.4l-186.3-183.7L2960-2035c-396.2,396.2-721.6,734.7-721.6,750.4c0,52.5,419.8,432.9,532.6,485.4C2907.5-738.8,2960-738.8,3091.2-799.2z"/><path d="M4694.3,48.4c125.9-173.2,257.1-351.6,293.9-398.8l65.6-86.6l107.6,105c57.7,57.7,99.7,110.2,94.4,115.4c-28.8,26.2-724.2,535.3-758.3,553.6C4479.2,350.1,4565.8,218.9,4694.3,48.4z"/><path d="M2763.2-1182.2l-89.2-91.8l509-511.6c280.8-280.8,522.1-509,535.3-503.8c15.7,5.3,60.4,52.5,102.3,105c70.8,86.6,76.1,102.3,47.2,170.5c-18.4,44.6-225.7,267.6-459.2,501.2C2928.5-1040.5,2910.1-1030,2763.2-1182.2z"/></g></g>
</svg>