<svg fill="#cc2329" xmlns="http://www.w3.org/2000/svg" width="125.521" height="125.501" viewBox="0 0 125.521 125.501">
  <path id="Close-Icon-SVG-03kdgd" d="M0,62.787A62.761,62.761,0,1,1,62.761,125.5,62.783,62.783,0,0,1,0,62.787Zm13.237,0A49.489,49.489,0,1,0,62.761,13.169,49.448,49.448,0,0,0,13.237,62.787ZM77.918,87.273,62.761,72.182,47.533,87.273a7.105,7.105,0,0,1-4.624,1.922,7.442,7.442,0,0,1-4.7-1.922,6.787,6.787,0,0,1,0-9.465L53.439,62.714,38.212,47.48a6.527,6.527,0,0,1,0-9.252,6.609,6.609,0,0,1,9.322,0L62.761,53.318,77.918,38.228a6.609,6.609,0,0,1,9.322,0,6.532,6.532,0,0,1,0,9.252L72.082,62.714,87.24,77.807a6.793,6.793,0,0,1,0,9.465,7.442,7.442,0,0,1-4.7,1.922A7.1,7.1,0,0,1,77.918,87.273Z"/>
</svg>
